<svg width="41" height="42" fill="none" xmlns="http://www.w3.org/2000/svg"><g clip-path="url(#clip0)" fill="#92A098"><path d="M24.503 19.82a.45.45 0 01-.408-.242 1.636 1.636 0 00-2.903 0 .453.453 0 01-.41.242c-1.3-.033-2.136 1.425-1.45 2.577a.473.473 0 01-.002.486c-.678 1.14.14 2.606 1.454 2.575a.45.45 0 01.408.241 1.636 1.636 0 002.903 0 .448.448 0 01.41-.241c1.309.03 2.133-1.432 1.451-2.578a.473.473 0 01.001-.485c.68-1.142-.144-2.609-1.454-2.575zm.03 4.408a1.64 1.64 0 00-1.492.882.447.447 0 01-.795 0 1.642 1.642 0 00-1.493-.882c-.357.009-.585-.39-.396-.708a1.724 1.724 0 00-.002-1.765c-.186-.314.04-.714.4-.705a1.64 1.64 0 001.491-.882.447.447 0 01.795 0c.298.56.873.898 1.493.882.356-.01.586.389.396.707a1.724 1.724 0 00.002 1.766c.186.313-.04.715-.4.705zM26.954 15.804c.126-.474.491-.849.954-.978 1.871-.523 3.351-2.037 3.862-3.957.3-1.129-.351-2.298-1.454-2.606-1.102-.308-2.244.36-2.544 1.49a1.382 1.382 0 01-.954.977c-1.873.523-3.353 2.04-3.863 3.957-.3 1.13.352 2.298 1.454 2.606 1.104.309 2.243-.357 2.545-1.49zm-1.16-.324a.868.868 0 01-1.069.626.896.896 0 01-.611-1.096c.399-1.499 1.556-2.684 3.02-3.093a2.603 2.603 0 001.796-1.84A.87.87 0 0130 9.45c.463.13.738.621.611 1.096-.398 1.497-1.556 2.684-3.02 3.093-.87.243-1.559.949-1.796 1.84zM20.532 13.693c1.104 0 2.002-.92 2.002-2.052 0-1.13-.898-2.05-2.002-2.05-1.105 0-2.003.92-2.003 2.05 0 1.131.898 2.052 2.003 2.052zm0-2.872c.441 0 .8.368.8.82 0 .453-.359.821-.8.821a.812.812 0 01-.802-.82c0-.453.36-.821.802-.821zM28.912 20.965c1.104 0 2.002-.92 2.002-2.051 0-1.131-.898-2.052-2.002-2.052-1.104 0-2.002.92-2.002 2.052 0 1.13.898 2.05 2.002 2.05zm0-2.872c.442 0 .801.368.801.82 0 .453-.36.822-.801.822a.812.812 0 01-.801-.821c0-.453.36-.821.801-.821zM19.086 26.241c-1.104 0-2.002.92-2.002 2.052 0 1.13.898 2.05 2.002 2.05 1.104 0 2.002-.92 2.002-2.05 0-1.131-.898-2.052-2.002-2.052zm0 2.872a.812.812 0 01-.801-.82c0-.453.36-.821.8-.821.443 0 .802.368.802.82 0 .453-.36.821-.801.821z"/><path d="M22.888.902a.617.617 0 00-.421.755.6.6 0 00.737.432c7.154-2.002 13.85 3.522 13.85 11.615 0 4.42-1.197 8.738-3.461 12.487a22.997 22.997 0 01-9.735 8.887c-3.44 1.666-7.569.847-10.181-2.114l-.024-.027a.59.59 0 00-.761-.11c-2.807 1.777-4.703 4.65-5.26 7.942H4.016c.6-4.66 3.285-8.823 7.278-11.232a.621.621 0 00.283-.66 8.83 8.83 0 011.46-6.992c.07-.136 2.104-2.482 2.104-6.257v-2.412c.272.1.578.2.804.268a2.245 2.245 0 011.578 2.144c0 2.807-.951 5.463-2.57 7.707-1.71 2.37-1.552 5.678.378 7.865.08.06 2.133 2.733 5.697 2.228.861-.122 1.449-.37 2.15-.722a20.314 20.314 0 003.998-2.64.626.626 0 00.082-.867.59.59 0 00-.846-.083A19.118 19.118 0 0122.65 31.6c-.777.39-1.47.657-2.485.657-2.55 0-3.875-1.832-3.943-1.883-1.548-1.754-1.675-4.407-.303-6.308.077-.151 2.805-3.366 2.805-8.44 0-1.503-.978-2.882-2.445-3.325-4.856-1.459-8.596-5.756-9.292-11.072h3.621c.632 3.465 3.111 6.468 6.635 7.544a3.318 3.318 0 003.425-.964c2.817-3.14 7.806-3.365 10.68-.084 1.345 1.537 2.122 3.648 2.122 5.978 0 3.737-1.011 7.387-2.925 10.556a19.844 19.844 0 01-2.445 3.246c-.438.471.053 1.227.645 1a.604.604 0 00.225-.151c.976-1.05 1.85-2.21 2.597-3.448a21.667 21.667 0 003.104-11.203c0-2.595-.863-5.01-2.43-6.8-3.381-3.86-9.191-3.569-12.457.074a2.128 2.128 0 01-2.197.617 8.347 8.347 0 01-.944-.355 11.183 11.183 0 014.597-4.387.622.622 0 00.272-.825.594.594 0 00-.805-.278c-2.132 1.082-3.932 2.816-5.127 4.92A8.533 8.533 0 0111.717.536.606.606 0 0011.12 0H6.317a.61.61 0 00-.598.667c.437 5.34 3.69 9.888 8.224 12.045-.005.313-.001-.128-.003 2.916a9.119 9.119 0 01-1.704 5.298c-.058.127-2.69 3.15-1.916 7.778-4.312 2.76-7.132 7.448-7.572 12.627a.61.61 0 00.598.669H8.15c.303 0 .558-.23.596-.538.368-2.981 1.95-5.621 4.37-7.317 2.891 2.985 7.375 3.926 11.256 2.046 4.41-2.135 7.86-5.406 10.243-9.353a25.402 25.402 0 003.64-13.134c0-8.92-7.462-15.013-15.366-12.802z"/></g><defs><clipPath id="clip0"><path fill="#fff" d="M0 0h41v42H0z"/></clipPath></defs></svg>