<svg width="41" height="42" fill="none" xmlns="http://www.w3.org/2000/svg"><path d="M19.86 14.438h1.28v2.624h-1.28v-2.625zM25.34 15.204l-1.122-.766 1.122-.767-.71-1.092-2.722 1.859 2.721 1.858.711-1.092zM16.371 16.296l2.722-1.858-2.722-1.859-.71 1.092 1.121.767-1.122.766.711 1.092z" fill="#3F594A"/><path d="M34.594 20.344h-.563c-1.729 0-3.229 1.165-3.736 2.803l-.02-.004-4.156-.752a6.166 6.166 0 00-.277-.645 9.39 9.39 0 002.075-4.027h.27c1.414 0 2.563-1.178 2.563-2.625 0-.018-.005-.034-.005-.052 2.172-.32 3.849-2.247 3.849-4.575a.46.46 0 01.132-.328 4.041 4.041 0 001.149-2.84c0-2.216-1.76-4.018-3.921-4.018h-.563a5.61 5.61 0 00-2.79.755c-1.688-2.063-4.22-3.38-7.048-3.38h-2.106c-2.283 0-4.37.862-5.98 2.277C12.676 1.545 11.228.656 9.61.656c-2.472 0-4.484 2.076-4.484 4.627a.46.46 0 01-.133.328 4.04 4.04 0 00-1.148 2.84c0 2.216 1.759 4.018 3.921 4.018h.563c.736 0 1.46-.151 2.138-.43.022.107.033.217.058.323l.275 1.127a2.643 2.643 0 00-.549 1.605c0 1.447 1.15 2.625 2.563 2.625h.27a9.39 9.39 0 002.075 4.027 6.166 6.166 0 00-.277.645l-4.02.727c-.247-2.295-2.15-4.087-4.455-4.087-2.473 0-4.484 2.076-4.484 4.627a.46.46 0 01-.133.328 4.04 4.04 0 00-1.148 2.84c0 1.976 1.4 3.619 3.236 3.952a8.929 8.929 0 00-.033.767v4.966c0 2.665 2.116 4.833 4.717 4.833h28.595v-9.382c1.884-.572 3.203-2.338 3.203-4.4V26.25c0-3.256-2.587-5.906-5.765-5.906zm-12.598 9.238l.414 3.815-.015.047c-.26.8-.988 1.337-1.812 1.337-.64 0-1.234-.325-1.588-.871a2.43 2.43 0 00-.608-.63l3.61-3.698zm1.518 2.098l-.357-3.286.336-.345c.548-.561.85-1.309.85-2.104 0-1.64-1.303-2.976-2.905-2.976-.776 0-1.506.31-2.055.872l-.43.44h-.11c-.755 0-1.465.302-1.999.849a2.912 2.912 0 00-.828 2.048v.113l-.938.96.789-4.581c.398-2.308 2.346-3.983 4.633-3.983s4.235 1.675 4.632 3.982l1.125 6.528a.545.545 0 01-.53.647c-.833 0-1.607.313-2.213.837zm4.674-15.274h-.044a9.74 9.74 0 00.044-.92V13.78c.706 0 1.28.589 1.28 1.313s-.574 1.312-1.28 1.312zm2.205-8.898c.299-.188.642-.29.998-.29h.563c.041 0 .077.037.055.137a4.428 4.428 0 00-1.259 3.112c0 .056-.02.104-.033.155.01-.182.033-.363.033-.545 0-.891-.13-1.751-.357-2.57zm.998-2.914h.563c1.455 0 2.64 1.213 2.64 2.704 0 .723-.275 1.402-.774 1.913a1.787 1.787 0 00-.508 1.256c0 1.732-1.295 3.142-2.934 3.286a2.52 2.52 0 00-.178-.264l.259-1.058c.893-.17 1.572-.985 1.572-1.964 0-.825.314-1.6.884-2.185a1.4 1.4 0 00.398-.984c0-.767-.61-1.392-1.36-1.392h-.562c-.505 0-.99.134-1.433.363a9.475 9.475 0 00-.608-1.166 4.363 4.363 0 012.04-.51zM8.328 11.156h-.563c-1.455 0-2.64-1.213-2.64-2.704 0-.723.275-1.402.774-1.913.327-.335.507-.782.507-1.256 0-1.827 1.437-3.314 3.203-3.314 1.27 0 2.396.766 2.91 1.931-.37.435-.7.905-.988 1.404V5.25c0-1.085-.862-1.969-1.922-1.969s-1.921.898-1.921 2.002c0 .825-.314 1.6-.885 2.185a1.4 1.4 0 00-.397.984c0 .767.61 1.392 1.359 1.392h.563c.746 0 1.424-.273 1.969-.713-.03.311-.047.627-.047.946 0 .203.024.405.037.607a4.377 4.377 0 01-1.959.472zM10.25 5.25v1.313c0 1.085-.862 1.968-1.922 1.968h-.563c-.042 0-.077-.037-.055-.136a4.427 4.427 0 001.259-3.112c0-.387.281-.69.64-.69a.65.65 0 01.641.657zm2.563 11.156c-.707 0-1.282-.588-1.282-1.312 0-.724.575-1.313 1.281-1.313v1.704c0 .31.015.617.044.921h-.043zm.103-3.937h-.104c-.317 0-.617.067-.898.175l-.146-.6a8.288 8.288 0 01-.237-1.967c0-4.47 3.551-8.108 7.916-8.108h2.106c4.365 0 7.916 3.637 7.916 8.108 0 .663-.08 1.325-.237 1.967l-.146.6a2.473 2.473 0 00-.898-.175h-.176a4.059 4.059 0 00-1.598-2.218 3.947 3.947 0 00-1.114-.529l-3.034-.888c.092-.305.156-.623.156-.959V4.594H21.14v3.281c0 1.085-.863 1.969-1.922 1.969h-3.01c-.672 0-1.323.202-1.883.585a3.47 3.47 0 00-1.41 2.04zm1.178 3.017v-2.162c0-.727.352-1.4.942-1.803a2.073 2.073 0 011.174-.365h3.009c.965 0 1.822-.449 2.41-1.143l3.319.971c.268.08.523.2.756.359a2.779 2.779 0 011.202 2.302v1.84a8.15 8.15 0 01-1.786 5.124 5.919 5.919 0 00-4.62-2.234 5.92 5.92 0 00-4.62 2.233 8.146 8.146 0 01-1.786-5.123zm.452 8.3l-1.048 6.084-3.248 3.327v-2.353H8.969v2.625H5.125v-1.924c0-3.51 2.448-6.5 5.822-7.11l3.599-.65zm-9.421 3.12h-.563c-.042 0-.078-.037-.055-.136a4.427 4.427 0 001.259-3.112c0-.387.28-.69.64-.69a.65.65 0 01.64.657v1.2A8.443 8.443 0 005.19 26.9c-.021.002-.043.006-.065.006zm-3.203-.08c0-.722.275-1.4.774-1.912.327-.336.507-.782.507-1.256 0-1.827 1.437-3.314 3.203-3.314 1.705 0 3.09 1.375 3.185 3.097-.439.146-.86.327-1.263.541v-.357c0-1.085-.862-1.969-1.922-1.969s-1.922.898-1.922 2.002c0 .825-.314 1.6-.884 2.185a1.4 1.4 0 00-.397.984c0 .749.582 1.358 1.307 1.386-.17.41-.309.833-.415 1.27-1.233-.227-2.173-1.329-2.173-2.656zm3.203 9.685v-1.73h3.579l-1.47 1.505.906.928 9.157-9.38v-.656c0-.417.165-.826.453-1.12a1.54 1.54 0 011.093-.464h.641l.805-.825a1.595 1.595 0 011.149-.488c.896 0 1.625.747 1.625 1.665 0 .444-.17.862-.476 1.176L10.99 39a3.373 3.373 0 01-2.43 1.031c-1.895 0-3.436-1.579-3.436-3.52zm6.772 3.417l5.56-5.695c.188.089.354.225.471.405a3.165 3.165 0 002.655 1.456c1.376 0 2.593-.899 3.027-2.235l.06-.184a2.171 2.171 0 012.058-1.519c1.003 0 1.819-.835 1.819-1.863a1.89 1.89 0 00-.028-.324l-1.065-6.184 3.599.65c3.373.61 5.822 3.6 5.822 7.11v1.924h-3.844v-2.625H30.75v9.187H11.786c.037-.035.075-.066.111-.103zm24.619-12.365a.656.656 0 01-.134.387 8.519 8.519 0 00-1.607-2.38 5.145 5.145 0 00-.822-1.21.08.08 0 01.078-.079h.563c1.06 0 1.922.884 1.922 1.969v1.313zM32.03 40.03v-5.25h3.844v5.25h-3.844zm7.047-12.468a3.264 3.264 0 01-1.98 3.024 8.757 8.757 0 00-.247-1.335c.567-.347.946-.98.946-1.69V26.25c0-1.81-1.437-3.281-3.203-3.281h-.563c-.63 0-1.157.443-1.31 1.04a8.21 8.21 0 00-1.184-.526c.36-1.07 1.351-1.827 2.494-1.827h.563c2.473 0 4.484 2.06 4.484 4.594v1.313z" fill="#3F594A"/><path d="M36.516 15.094c0-.724.574-1.313 1.28-1.313.708 0 1.282.589 1.282 1.313s-.575 1.312-1.281 1.312v1.313c1.413 0 2.562-1.178 2.562-2.625 0-1.448-1.149-2.625-2.562-2.625-1.413 0-2.563 1.177-2.563 2.625h1.282zM2.563 16.406c1.06 0 1.921-.883 1.921-1.968 0-1.086-.862-1.97-1.921-1.97-1.06 0-1.922.884-1.922 1.97 0 1.085.862 1.968 1.921 1.968zm0-2.625a.65.65 0 01.64.656.65.65 0 01-.64.657.65.65 0 01-.641-.656.65.65 0 01.64-.657z" fill="#3F594A"/></svg>