<svg width="75" height="75" fill="none" xmlns="http://www.w3.org/2000/svg"><path d="M38.49 55.461c-2.29 0-4.367-.516-6.23-1.549a11.356 11.356 0 01-4.345-4.277c-1.055-1.818-1.583-3.85-1.583-6.095 0-2.245.528-4.277 1.583-6.096a11.357 11.357 0 014.344-4.277c1.864-1.033 3.94-1.549 6.23-1.549 1.617 0 3.132.27 4.547.808 1.414.517 2.627 1.291 3.637 2.324l-.707.74c-1.954-1.885-4.434-2.828-7.443-2.828-2.065 0-3.94.483-5.624 1.448a10.378 10.378 0 00-3.974 3.907c-.965 1.661-1.448 3.502-1.448 5.523 0 2.02.483 3.861 1.448 5.523a10.626 10.626 0 003.974 3.94c1.684.943 3.559 1.414 5.624 1.414 2.986 0 5.467-.954 7.443-2.862l.707.74c-1.01 1.033-2.223 1.82-3.637 2.358-1.392.539-2.908.808-4.547.808zM25.195 21.4L23.18 26h-.85l-2.014-4.6h.868l1.58 3.689 1.614-3.69h.816zm.777 0h.834V26h-.834v-4.6zm.417-.886a.57.57 0 01-.408-.156.52.52 0 01-.156-.382.52.52 0 01.156-.382.554.554 0 01.408-.165.54.54 0 01.4.157.48.48 0 01.164.373c0 .156-.055.29-.165.399a.54.54 0 01-.399.156zm4.594 5.217a1.295 1.295 0 01-.451.243c-.18.052-.364.078-.555.078-.463 0-.822-.124-1.077-.373-.254-.249-.382-.605-.382-1.068v-2.526h-.78V21.4h.78v-1.007h.834V21.4h1.319v.685h-1.32v2.491c0 .25.061.44.183.573.127.133.306.2.538.2.255 0 .472-.072.651-.217l.26.599zm2.683-4.375c.637 0 1.123.156 1.458.469.342.312.512.778.512 1.397V26h-.79v-.608a1.34 1.34 0 01-.598.495 2.29 2.29 0 01-.912.165c-.515 0-.928-.124-1.241-.373a1.202 1.202 0 01-.46-.981c0-.405.147-.73.443-.972.295-.249.764-.373 1.406-.373h1.32v-.165c0-.36-.105-.634-.313-.825-.209-.19-.515-.286-.92-.286-.272 0-.539.046-.799.138-.26.087-.48.206-.66.356l-.347-.625c.237-.19.52-.335.85-.434a3.47 3.47 0 011.051-.156zm-.19 4.054c.317 0 .592-.07.824-.209.231-.144.399-.347.503-.607v-.643H33.52c-.706 0-1.06.238-1.06.712 0 .232.09.414.27.547.179.133.428.2.746.2zm9.457-4.054c.579 0 1.036.168 1.372.504.341.335.512.833.512 1.493V26h-.833v-2.552c0-.445-.105-.781-.313-1.007-.202-.226-.495-.338-.877-.338-.422 0-.758.133-1.006.399-.25.26-.374.637-.374 1.128V26h-.833v-2.552c0-.445-.104-.781-.312-1.007-.203-.226-.495-.338-.877-.338-.423 0-.758.133-1.007.399-.249.26-.373.637-.373 1.128V26h-.834v-4.6h.799v.685c.168-.237.388-.416.66-.538.272-.127.581-.19.928-.19.36 0 .678.072.955.216.278.145.492.356.643.634.173-.266.413-.475.72-.625a2.39 2.39 0 011.05-.226zm3.417.044h.833V26h-.833v-4.6zm.417-.886a.57.57 0 01-.408-.156.52.52 0 01-.156-.382.52.52 0 01.156-.382.554.554 0 01.408-.165.54.54 0 01.399.157.48.48 0 01.165.373c0 .156-.055.29-.165.399a.54.54 0 01-.4.156zm4.464.842c.584 0 1.047.17 1.389.512.347.336.52.83.52 1.485V26h-.833v-2.552c0-.445-.107-.781-.321-1.007-.214-.226-.52-.338-.92-.338-.451 0-.807.133-1.068.399-.26.26-.39.637-.39 1.128V26h-.834v-4.6h.799v.694c.168-.237.394-.42.677-.547.29-.127.616-.19.98-.19z" fill="#B6B6B6"/><circle cx="37.5" cy="37.5" r="37.113" stroke="#C4C4C4" stroke-width=".773"/></svg>