<svg width="75" height="75" fill="none" xmlns="http://www.w3.org/2000/svg"><path d="M29.54 48.461c-2.29 0-4.366-.516-6.23-1.549a11.356 11.356 0 01-4.344-4.277c-1.055-1.818-1.582-3.85-1.582-6.095 0-2.245.527-4.277 1.582-6.096a11.357 11.357 0 014.345-4.277c1.863-1.033 3.94-1.549 6.23-1.549 1.616 0 3.132.27 4.546.808 1.415.517 2.627 1.291 3.637 2.324l-.707.74c-1.953-1.885-4.434-2.828-7.443-2.828-2.065 0-3.94.483-5.623 1.448a10.378 10.378 0 00-3.974 3.907c-.966 1.661-1.448 3.502-1.448 5.523 0 2.02.482 3.861 1.448 5.523a10.625 10.625 0 003.974 3.94c1.683.943 3.558 1.414 5.623 1.414 2.986 0 5.467-.954 7.443-2.862l.707.74c-1.01 1.033-2.222 1.82-3.637 2.358-1.392.539-2.907.808-4.546.808zm19.1-17.747c2.087 0 3.681.538 4.781 1.616 1.123 1.078 1.684 2.638 1.684 4.681v11.316h-1.078v-3.503c-.56 1.123-1.403 2.01-2.525 2.66-1.1.63-2.425.944-3.974.944-1.953 0-3.491-.45-4.614-1.347-1.1-.898-1.65-2.088-1.65-3.57 0-1.415.505-2.56 1.515-3.435 1.01-.898 2.627-1.347 4.85-1.347h6.365V37.01c0-1.729-.46-3.042-1.381-3.94-.898-.898-2.234-1.347-4.008-1.347a9.338 9.338 0 00-3.468.64c-1.078.426-1.998.999-2.762 1.717l-.606-.808c.853-.808 1.875-1.437 3.065-1.886a10.87 10.87 0 013.805-.673zm-1.045 16.77c3.143 0 5.276-1.403 6.399-4.209v-3.637h-6.365c-1.819 0-3.155.348-4.008 1.044-.83.673-1.246 1.594-1.246 2.761 0 1.258.46 2.246 1.38 2.964.944.719 2.224 1.078 3.84 1.078z" fill="#B6B6B6"/><circle cx="37.5" cy="37.5" r="37.113" stroke="#C4C4C4" stroke-width=".773"/></svg>