<svg width="41" height="42" fill="none" xmlns="http://www.w3.org/2000/svg"><g clip-path="url(#clip0)" fill="#6C8074"><path d="M40.95 21.495a.803.803 0 00-.922-.675l-1.478.25-.137-.512a.8.8 0 00-.903-.594l-1.938.328a.818.818 0 00-.66.943c.073.447.485.75.921.676l1.225-.208.137.514a.804.804 0 00.903.594l2.192-.372a.818.818 0 00.66-.944zM39.182 28.111l-1.475-.569.1-.586a.824.824 0 00-.506-.91l-1.856-.715a.795.795 0 00-1.032.478.827.827 0 00.468 1.057l1.234.476-.1.586a.824.824 0 00.506.91l2.097.809a.782.782 0 00.282.053.802.802 0 00.75-.532.826.826 0 00-.468-1.056zM35.163 16.36a.79.79 0 00.575-.25l.898-.95.318.285a.787.787 0 001.103-.047l1.611-1.707a.835.835 0 00-.019-1.16.787.787 0 00-1.132.02l-1.081 1.145-.319-.285a.787.787 0 00-1.103.046l-1.427 1.512a.835.835 0 00.019 1.16c.155.154.356.23.556.23zM3.032 22.821a.804.804 0 00.772-.604l.137-.514 1.227.207a.802.802 0 00.92-.675.818.818 0 00-.66-.943l-1.94-.328a.8.8 0 00-.902.594l-.137.513-1.476-.251a.803.803 0 00-.921.675.818.818 0 00.659.943l2.19.372a.774.774 0 00.131.011zM5.553 25.33l-1.854.717a.823.823 0 00-.507.908l.1.587-1.474.57a.826.826 0 00-.467 1.057.802.802 0 00.75.53.78.78 0 00.282-.053l2.094-.809a.823.823 0 00.507-.908l-.1-.587 1.234-.476a.826.826 0 00.466-1.057.795.795 0 00-1.031-.478zM4.983 13.457a.787.787 0 00-1.104-.046l-.316.285L2.48 12.55a.787.787 0 00-1.132-.018.835.835 0 00-.019 1.16l1.614 1.706a.787.787 0 001.103.046l.316-.284.897.95a.79.79 0 001.132.019.835.835 0 00.02-1.16l-1.428-1.512zM26.913 14.021a.81.81 0 00-.801.82c0 .454.358.82.8.82h.003a.81.81 0 00.8-.82c0-.452-.36-.82-.802-.82z"/><path d="M31.718 14.842c0-2.717-2.155-4.927-4.805-4.927H24.78c.174-.374.272-.792.272-1.233V2.873C25.052 1.29 23.794 0 22.247 0c-1.546 0-2.804 1.289-2.804 2.873v2.938h-5.355c-2.651 0-4.808 2.209-4.808 4.924 0 1.712.857 3.223 2.154 4.106a4.956 4.956 0 00-2.154 4.105c0 1.712.857 3.223 2.154 4.106A4.958 4.958 0 009.28 27.16c0 2.715 2.157 4.924 4.808 4.924h1.62a2.914 2.914 0 00-.272 1.233v5.81c0 1.585 1.258 2.874 2.804 2.874 1.547 0 2.805-1.289 2.805-2.873v-2.938h5.868c2.65 0 4.805-2.21 4.805-4.927a4.956 4.956 0 00-2.152-4.104 4.96 4.96 0 002.152-4.106 4.96 4.96 0 00-2.152-4.106 4.956 4.956 0 002.152-4.104zm-4.805 3.283H14.088a.81.81 0 00-.8.82c0 .454.358.82.8.82h12.825c1.766 0 3.204 1.475 3.204 3.287 0 1.812-1.438 3.286-3.204 3.286H14.088a.81.81 0 00-.8.82c0 .453.358.82.8.82h12.825c1.766 0 3.204 1.474 3.204 3.284 0 1.813-1.438 3.287-3.204 3.287h-6.67a.81.81 0 00-.8.82v3.758c0 .68-.54 1.232-1.203 1.232s-1.203-.553-1.203-1.232v-5.811c0-.68.54-1.233 1.203-1.233h8.673a.81.81 0 00.8-.82.81.81 0 00-.8-.82H14.088c-1.768 0-3.207-1.474-3.207-3.284 0-1.812 1.439-3.287 3.207-3.287h12.825a.81.81 0 00.8-.82.81.81 0 00-.8-.82H14.088c-1.768 0-3.207-1.474-3.207-3.286 0-1.811 1.439-3.284 3.207-3.284h9.228a.81.81 0 00.8-.82.81.81 0 00-.8-.82h-9.228c-1.768 0-3.207-1.475-3.207-3.287 0-1.81 1.439-3.283 3.207-3.283h6.156a.81.81 0 00.8-.82V2.872c0-.68.54-1.232 1.203-1.232.664 0 1.203.553 1.203 1.232v5.809c0 .68-.54 1.233-1.203 1.233h-8.16a.81.81 0 00-.8.82c0 .453.359.82.8.82h12.826c1.766 0 3.204 1.475 3.204 3.287 0 1.81-1.438 3.283-3.204 3.283z"/></g><defs><clipPath id="clip0"><path fill="#fff" d="M0 0h41v42H0z"/></clipPath></defs></svg>