<svg width="64" height="64" fill="none" xmlns="http://www.w3.org/2000/svg"><path d="M13.3 13.531a.85.85 0 001.207 0l.603-.603.603.603a.85.85 0 001.207 0 .853.853 0 000-1.207l-.604-.603.604-.603a.853.853 0 10-1.207-1.207l-.603.604-.603-.604a.853.853 0 10-1.207 1.207l.603.603-.603.603a.853.853 0 000 1.207zM12.3 36.571a.85.85 0 001.207 0 .853.853 0 000-1.206l-.604-.604.604-.603A.853.853 0 0012.3 32.95l-.603.604-.604-.604a.853.853 0 10-1.206 1.207l.603.603-.603.603a.853.853 0 101.206 1.207l.604-.603.603.603zM33.986 18.444a.853.853 0 00-1.206 0l-.604.604-.603-.604a.853.853 0 10-1.206 1.207l.603.603-.603.604a.853.853 0 101.206 1.206l.603-.603.604.603a.851.851 0 001.206 0 .853.853 0 000-1.206l-.603-.604.603-.603a.853.853 0 000-1.207zM13.403 18.974a2.99 2.99 0 002.987 2.987 2.99 2.99 0 002.987-2.986 2.99 2.99 0 00-2.987-2.987 2.99 2.99 0 00-2.987 2.986zm4.267 0c0 .706-.574 1.28-1.28 1.28-.706 0-1.28-.574-1.28-1.28 0-.705.574-1.28 1.28-1.28.706 0 1.28.575 1.28 1.28zM22.363 16.841a2.136 2.136 0 002.134-2.133 2.135 2.135 0 00-2.134-2.133 2.135 2.135 0 00-2.133 2.133c0 1.176.957 2.133 2.133 2.133zm0-2.56a.427.427 0 110 .854.427.427 0 010-.854zM25.807 21.677a.912.912 0 100-1.825.912.912 0 000 1.825zM27.514 10.584a.912.912 0 100-1.825.912.912 0 000 1.825zM50.096 39.028H40.71a.853.853 0 00-.854.853v11.947c0 .471.382.853.854.853h9.386a.853.853 0 00.854-.853V39.88a.853.853 0 00-.854-.853zm-.853 11.947h-7.68v-10.24h7.68v10.24z" fill="#202945"/><path d="M50.097 29.94v-9.686a.853.853 0 00.853-.853v-4.267a.853.853 0 00-.853-.853v-1.707a.853.853 0 00-.854-.853h-7.68a.853.853 0 00-.853.854v1.706a.853.853 0 00-.853.853v4.267c0 .471.381.854.853.854v9.685a7.601 7.601 0 00-4.267 6.857v17.59a.853.853 0 101.707 0v-17.59a5.907 5.907 0 013.73-5.51.853.853 0 00.537-.793v-4.266h5.973v4.266c0 .35.212.663.537.793a5.907 5.907 0 013.73 5.51v17.59a.853.853 0 101.706 0v-17.59a7.601 7.601 0 00-4.266-6.857zm-8.534-13.952h7.68v2.56h-7.68v-2.56zm.854-2.56h5.973v.853h-5.973v-.853zm5.973 6.826v4.267h-5.973v-4.267h5.973zM30.392 44.395l-.431-.129c-1.345-.4-2.617-.776-3.825-1.301l-.786-.342v-1.057a4.699 4.699 0 004.266-4.672v-8.642c0-2.058-1.971-3.731-4.395-3.731H15.11a.853.853 0 00-.853.853c0 1.474.642 2.825 1.706 3.868v7.652a4.699 4.699 0 004.267 4.672v1.057l-.786.342c-1.208.525-2.48.902-3.825 1.301l-.431.129c-2.088.623-3.492 2.323-3.492 4.23v5.763a.853.853 0 101.707 0v-5.763c0-1.146.913-2.19 2.273-2.595l.429-.127c1.335-.397 2.715-.807 4.019-1.373l.354-.154a2.557 2.557 0 002.312 1.478 2.558 2.558 0 002.312-1.478l.353.154c1.304.566 2.685.976 4.02 1.373l.428.127c1.36.406 2.273 1.449 2.273 2.595v5.763a.853.853 0 101.707 0v-5.763c0-1.907-1.403-3.607-3.492-4.23zm-12.722-7.5v-6.431c1.089.56 2.37.884 3.741.884h2.583a.853.853 0 100-1.707h-2.582c-2.631 0-4.833-1.468-5.34-3.413h9.15c1.482 0 2.688.908 2.688 2.024v8.643a2.99 2.99 0 01-2.987 2.986h-4.266a2.99 2.99 0 01-2.987-2.986zm5.12 7.253a.854.854 0 01-.854-.854v-1.706h1.707v1.706c0 .47-.382.854-.853.854z" fill="#202945"/><path d="M28.763 49.268a.853.853 0 00-.853.853v4.267a.853.853 0 101.706 0V50.12a.853.853 0 00-.853-.853zM16.817 49.268a.853.853 0 00-.854.853v4.267a.853.853 0 101.707 0V50.12a.853.853 0 00-.853-.853z" fill="#202945"/></svg>