<svg width="64" height="64" fill="none" xmlns="http://www.w3.org/2000/svg"><g clip-path="url(#clip0)"><path d="M60.251 61.261a13.117 13.117 0 01-.517-3.661V35.2c0-8.582-8.967-12.83-15.712-15.278a5.32 5.32 0 01-3.489-4.989A9.462 9.462 0 0142.255 9.8a16.08 16.08 0 002.368-6.171 3.143 3.143 0 00-.738-2.513A3.219 3.219 0 0041.45 0H21.015c-.726 0-1.431.248-1.999.701l-3.61 2.888a2.134 2.134 0 00.15 3.441l.903.603-.146.146a1.066 1.066 0 000 1.508l.312.313-.312.312c-.325.325-.405.82-.2 1.231l.889 1.778a3.765 3.765 0 00.458 2.922 3.228 3.228 0 002.807 1.223c1.266 0 4.19.203 4.265 2.06-.4.56-2.941 1.463-4.808 2.126C13.569 23.437 4.267 26.738 4.267 35.2v22.4a13.115 13.115 0 01-.518 3.661A2.131 2.131 0 005.793 64h5.183a2.127 2.127 0 002.02-1.447c.32-.951.965-3.005 1.576-5.726l.245 4.161A3.203 3.203 0 0018.011 64H45.99a3.203 3.203 0 003.194-3.013l.264-4.493a78.98 78.98 0 001.564 6.005A2.118 2.118 0 0053.048 64h5.159a2.132 2.132 0 002.044-2.739zm-42.24.606c-.564-.001-1.03-.44-1.064-1.005l-.949-16.125a1.067 1.067 0 00-2.131.063 57.627 57.627 0 01-2.89 17.067l-5.181-.003A15.3 15.3 0 006.4 57.6V35.2c0-6.955 8.114-9.835 14.037-11.938 3.752-1.331 6.23-2.211 6.23-4.062 0-2.672-2.393-4.267-6.4-4.267-.39.045-.78-.076-1.074-.335a2.001 2.001 0 01-.048-1.46c.09-.269.069-.562-.058-.815l-.722-1.446.379-.38a15.766 15.766 0 015.79-.897c1.153 0 4.148.602 4.148 3.352l.002.216c.028.287-.001.577-.087.853a3.408 3.408 0 00.669 3.953c.39.466.616 1.046.645 1.652-.4 13.004 2.07 18.473 3.705 22.093.17.374.323.724.473 1.072.01.106.038.21.08.309a8.935 8.935 0 011.031 3.833 2.868 2.868 0 01-3.2 3.2 12.491 12.491 0 01-2.941-.501 14.278 14.278 0 00-3.459-.566c-2.578 0-5.333 1.401-5.333 5.334 0 2.826 2.886 4.11 5.433 5.241a10.738 10.738 0 013.745 2.226H18.012zm19.029-17.17c.805.09 1.616.125 2.427.103 1.59 0 3.2 1.832 3.2 5.333a5.112 5.112 0 01-5.334 5.334c-3.16 0-5.455-1.745-7.316-3.421.652.139 1.317.213 1.983.22 3.932 0 5.334-2.755 5.334-5.333 0-.755-.099-1.507-.294-2.236zm16.01 17.177c-.684-2.234-2.916-10.07-2.916-17.074 0-.577-.46-1.05-1.036-1.066h-.032c-.564 0-1.03.44-1.064 1.003l-.948 16.125a1.068 1.068 0 01-1.065 1.005H31.845c-.626-2.103-3.077-3.197-5.278-4.175C24.05 56.573 22.4 55.74 22.4 54.4a2.869 2.869 0 013.2-3.2c.362 0 1.438.999 2.15 1.66 2.034 1.887 5.107 4.74 9.584 4.74a7.23 7.23 0 007.466-7.467c0-5.13-2.764-7.466-5.333-7.466-2.013 0-2.707-.037-3.383-.64a70.74 70.74 0 00-.524-1.187c-1.646-3.645-3.901-8.639-3.517-21.149a4.87 4.87 0 00-1.301-3.258 1.263 1.263 0 01-.237-1.459c.253-.574.36-1.201.311-1.827v-.195c0-4.025-3.758-5.486-6.283-5.486a19.818 19.818 0 00-5.628.727 1.057 1.057 0 00-.18-1.614l-1.987-1.324 3.611-2.889c.19-.15.424-.233.666-.233H41.45c.316 0 .616.138.822.377.194.221.283.517.241.808a14.101 14.101 0 01-2.103 5.413 11.465 11.465 0 00-2.009 6.202 7.46 7.46 0 004.894 6.994C49.436 24.157 57.6 27.957 57.6 35.2v22.4c0 1.444.203 2.88.607 4.267l-5.156.007z" fill="#202945"/></g><defs><clipPath id="clip0"><path fill="#fff" d="M0 0h64v64H0z"/></clipPath></defs></svg>