<svg width="64" height="64" fill="none" xmlns="http://www.w3.org/2000/svg"><path d="M40.78 41h15.407C60.495 41 64 37.495 64 33.187V7.814C64 3.505 60.495 0 56.187 0h-3.062a.938.938 0 000 1.875h3.063a5.944 5.944 0 015.937 5.938v25.375a5.944 5.944 0 01-5.938 5.937H42.694a31.441 31.441 0 002.38-2.928c.785-1.087 1.356-2.047 1.773-3.013a5.95 5.95 0 005.578-5.934 4.576 4.576 0 00-3.002-4.294c.994-1.363 1.516-3.467 1.449-6.054-.084-3.207-1.062-6.67-2.686-9.5-1.4-2.44-3.2-4.313-5.29-5.527h5.867a.937.937 0 100-1.875H7.813C3.505 0 0 3.505 0 7.813v18.08a.937.937 0 101.875 0V7.814a5.944 5.944 0 015.938-5.938H27.58a14.802 14.802 0 00-3.28 2.392 7.116 7.116 0 00-2.511-.46 9.37 9.37 0 00-6.715 2.75c-1.551 1.54-3.4 4.402-3.4 9.297 0 2.402.678 5.608 2.385 7.381a4.573 4.573 0 00-2.385 4.015 5.95 5.95 0 005.579 5.934c.416.966.988 1.926 1.772 3.013a31.477 31.477 0 002.38 2.928H7.813a5.944 5.944 0 01-5.938-5.938V30.29a.937.937 0 10-1.875 0v2.898C0 37.495 3.505 41 7.813 41H23.32c.31.272.622.53.935.776l-.51 4.368-6.32 1.58a16.41 16.41 0 00-10.7 8.526H1.564C.7 56.25 0 56.95 0 57.813v4.624C0 63.3.7 64 1.563 64h60.874C63.3 64 64 63.3 64 62.437v-4.624c0-.862-.7-1.563-1.563-1.563h-5.051a16.41 16.41 0 00-10.7-8.526l-6.331-1.583-.508-4.367c.312-.245.623-.502.933-.774zm9.77-13.75a4.077 4.077 0 01-3.058 3.945c.393-1.731.46-3.734.47-6.634a2.692 2.692 0 012.588 2.689zM16.396 7.889a7.51 7.51 0 015.38-2.206 5.285 5.285 0 011.863.34l.49 4.78c-.845 2.608-1.83 4.586-3.796 5.744-2.32 1.366-3.78 3.495-4.12 5.951-1.829-.811-2.663-4.169-2.663-6.644 0-3.363.984-6.118 2.845-7.965zm-2.846 19.36a2.692 2.692 0 012.589-2.688c.009 2.9.076 4.903.47 6.634a4.077 4.077 0 01-3.059-3.945zm4.462-3.63c0-2.243 1.193-4.232 3.273-5.457 2.211-1.302 3.388-3.38 4.213-5.583 4.803 4.255 8.714 4.386 11.899 4.492.296.01.589.02.878.033a.938.938 0 00.084-1.873 82.655 82.655 0 00-.9-.034c-3.355-.112-6.824-.231-11.48-4.728l-.486-4.744c2.535-2.511 6.01-3.851 9.709-3.85h.03c1.503.004 3.041.228 4.568.686 5.776 1.73 9.05 8.706 9.198 14.39.058 2.255-.402 4.088-1.213 5.061-.467-2.071-1.83-3.945-3.896-5.293a8.382 8.382 0 00-.836-.48.938.938 0 00-.836 1.679c.22.11.437.234.648.372 1.203.785 3.223 2.522 3.223 5.328 0 6.184-.108 8.117-2.534 11.483-3.633 5.038-7.825 7.928-11.504 7.928-3.678 0-7.871-2.89-11.503-7.928-2.427-3.366-2.535-5.299-2.535-11.483zM55.248 56.25h-8.58a.938.938 0 000 1.875h15.457v4H1.875v-4h40.42a.938.938 0 000-1.875H8.865a14.539 14.539 0 019.016-6.707l5.746-1.437a5.853 5.853 0 001.256 3.23c1.11 1.379 3.253 3.022 7.167 3.022 3.915 0 6.059-1.644 7.168-3.023a5.854 5.854 0 001.256-3.232l5.758 1.44a14.54 14.54 0 019.016 6.707zm-16.66-9.066c.126 1.078-.177 2.163-.831 2.976-1.24 1.542-3.16 2.323-5.707 2.323-2.546 0-4.466-.781-5.706-2.322-.654-.814-.957-1.899-.832-2.977l.49-4.191c2.034 1.247 4.09 1.911 6.048 1.911 1.96 0 4.016-.665 6.05-1.912l.489 4.192z" fill="#202945"/><path d="M33.125 35.453h-2.25a.938.938 0 000 1.875h2.25a.937.937 0 100-1.875zM30.203 32.772a5.68 5.68 0 001.797.29 5.68 5.68 0 001.797-.29.937.937 0 00-.594-1.778 3.823 3.823 0 01-2.406 0 .938.938 0 00-.594 1.778zM28.126 29.855l.017-.011a.938.938 0 00-1.036-1.563l-.017.011a2.42 2.42 0 01-2.692-.008.937.937 0 10-1.045 1.557 4.296 4.296 0 004.773.014zM24.187 24.881a.936.936 0 00.32-.056l.305-.111v1.224a.938.938 0 001.875 0v-1.906l.946-.345a.938.938 0 00-.641-1.762l-3.125 1.138a.938.938 0 00.32 1.819zM35.853 29.841a4.295 4.295 0 004.773.014l.017-.011a.938.938 0 00-1.036-1.563l-.017.011a2.42 2.42 0 01-2.693-.008.937.937 0 10-1.044 1.557zM36.367 23.687l.946.345v1.905a.937.937 0 101.875 0v-1.223l.304.11a.936.936 0 001.202-.56.938.938 0 00-.56-1.201l-3.126-1.138a.938.938 0 10-.64 1.762z" fill="#202945"/></svg>