<svg width="20" height="20" fill="none" xmlns="http://www.w3.org/2000/svg"><path d="M14.801.337H5.488A5.09 5.09 0 00.4 5.42v9.32c0 2.81 2.28 5.083 5.088 5.083h9.313a5.086 5.086 0 005.088-5.083V5.421A5.093 5.093 0 0014.801.337zm0 17.045H5.488a2.644 2.644 0 01-2.64-2.64v-9.32a2.636 2.636 0 012.64-2.632h9.313c1.457 0 2.64 1.18 2.64 2.631v9.321a2.646 2.646 0 01-2.64 2.64z" fill="#fff"/><path d="M10.145 4.584a5.507 5.507 0 00-5.498 5.501c0 3.024 2.468 5.494 5.498 5.494a5.503 5.503 0 005.497-5.494 5.505 5.505 0 00-5.497-5.501zm0 8.544a3.047 3.047 0 11.002-6.09 3.047 3.047 0 01-.002 6.09z" fill="#fff"/><path d="M15.262 3.559c-.726 0-1.316.597-1.316 1.316 0 .726.59 1.324 1.316 1.324.722 0 1.316-.598 1.316-1.324a1.326 1.326 0 00-1.316-1.316z" fill="#fff"/></svg>