<svg width="55" height="54" fill="none" xmlns="http://www.w3.org/2000/svg"><path d="M33.483 1.35C19.1-1.9 4.763 6.933 1.459 21.08c-3.29 14.083 5.596 28.135 19.891 31.461l.04.092.128-.054c14.382 3.25 28.72-5.583 32.024-19.73 3.304-14.146-5.677-28.25-20.06-31.5zM3.889 19.993C5.62 14.365 9.374 9.55 14.449 6.444a12 12 0 002.583 5.162l-2.94 2.893a10.154 10.154 0 00-.006 14.528 10.528 10.528 0 007.046 3.006 15.466 15.466 0 00-1.898 15.655l1.089 2.499C7.308 46.313-.05 32.795 3.889 19.993zM22.813 50.79l-1.699-3.897c-2.207-5.032-1.148-10.874 2.692-14.845h8.791v-2.02H21.482c-4.638.002-8.399-3.695-8.4-8.257 0-2.193.885-4.295 2.461-5.844l2.938-2.89c.026.021.05.047.077.068a12.383 12.383 0 007.835 2.79h6.204v-2.019h-6.204c-4.855 0-9.035-3.37-9.987-8.053l-.086-.419c7.845-3.933 17.23-3.432 24.597 1.313v.002l.457 3.602c.72 5.67-3.37 10.843-9.135 11.551-.433.054-.868.08-1.305.08h-8.6v2.02h8.6a12.705 12.705 0 006.672-1.91l2.593 1.595c3.465 2.121 4.525 6.604 2.367 10.012-1.35 2.131-3.721 3.427-6.274 3.426h-9.853v2.02h3.592a12.049 12.049 0 001.626 11.144l.393.541a24.822 24.822 0 01-9.237-.01zm11.395-.492l-.88-1.212a10.056 10.056 0 01-1.076-9.972h4.04c5.215.008 9.449-4.144 9.457-9.273.004-3.213-1.678-6.2-4.45-7.898l-1.94-1.19c3.066-2.683 4.585-6.682 4.057-10.684L43.2 8.371c5.638 4.597 8.9 11.426 8.898 18.629-.016 10.82-7.313 20.324-17.89 23.298z" fill="#202945"/></svg>