<svg width="81" height="75" fill="none" xmlns="http://www.w3.org/2000/svg"><path d="M17.54 37.4a11.68 11.68 0 014.19 4.23c1.041 1.782 1.558 3.732 1.558 5.847v17.75h-3.986v-17.75c0-1.37-.338-2.634-1.01-3.79a7.671 7.671 0 00-2.744-2.762 7.244 7.244 0 00-3.757-1.027c-1.351 0-2.6.343-3.754 1.027a7.644 7.644 0 00-2.745 2.762 7.374 7.374 0 00-1.01 3.79v17.75H.35V36.609h3.93v2.587a9.653 9.653 0 013.381-2.498 10.123 10.123 0 014.13-.851c2.08-.004 3.994.515 5.75 1.553zM37.646 31.581c-1.252 1.156-1.973 2.577-2.167 4.262h6.586v3.997h-6.642v25.39h-3.93V39.84h-3.005v-3.997h3.005a10.4 10.4 0 011.646-5.053 10.776 10.776 0 013.814-3.614c1.562-.88 3.265-1.324 5.116-1.324v3.997c-1.696 0-3.17.576-4.423 1.732zM51.111 63.527a14.656 14.656 0 01-5.344-5.436c-1.309-2.294-1.963-4.77-1.963-7.436 0-2.705.654-5.203 1.963-7.494a14.842 14.842 0 015.344-5.464 13.956 13.956 0 017.311-2.029c2.657 0 5.116.676 7.367 2.029a15.08 15.08 0 015.373 5.464c1.33 2.29 1.995 4.789 1.995 7.494 0 2.666-.665 5.142-1.995 7.436-1.33 2.29-3.12 4.105-5.373 5.436-2.251 1.332-4.707 1.997-7.367 1.997-2.621 0-5.056-.665-7.31-1.997zm12.712-3.41a10.868 10.868 0 003.902-3.997 10.822 10.822 0 001.446-5.465c0-1.997-.483-3.84-1.447-5.525a10.84 10.84 0 00-3.901-3.998c-1.64-.98-3.438-1.47-5.404-1.47-1.928 0-3.709.49-5.345 1.47a10.84 10.84 0 00-3.901 3.998c-.964 1.685-1.446 3.525-1.446 5.525 0 1.961.482 3.783 1.446 5.465.964 1.685 2.262 3.016 3.901 3.997 1.636.98 3.42 1.47 5.345 1.47 1.966 0 3.768-.49 5.404-1.47zM.258 74.947v-3.769h1.21c.401 0 .704.086.908.254.204.168.302.419.302.752 0 .175-.049.333-.147.469a.965.965 0 01-.401.314c.2.058.358.165.474.326a.94.94 0 01.176.57c0 .335-.109.604-.323.797-.215.193-.521.29-.915.29H.258v-.004zm.489-2.162h.739c.214 0 .383-.054.513-.165a.557.557 0 00.194-.443c0-.208-.06-.358-.18-.455-.12-.093-.299-.14-.541-.14H.747v1.203zm0 .397v1.356h.806c.228 0 .408-.06.538-.178.134-.118.197-.287.197-.494 0-.455-.243-.68-.728-.68H.747v-.004zM5.194 73.071l.967-1.893h.556L5.44 73.54v1.406h-.489V73.54l-1.277-2.362h.56l.96 1.893zM12.737 74.947h-.493l-1.864-2.903v2.903h-.49v-3.769h.49l1.871 2.917v-2.917h.486v3.769zM17.156 73.182c0 .369-.06.69-.183.966a1.394 1.394 0 01-.52.63 1.43 1.43 0 01-.785.219c-.292 0-.549-.072-.774-.219a1.44 1.44 0 01-.524-.622 2.29 2.29 0 01-.194-.938v-.272c0-.361.064-.683.187-.959.123-.28.299-.49.524-.637.225-.147.486-.222.777-.222.296 0 .56.072.785.219.225.146.401.357.524.633.123.275.183.597.183.966v.236zm-.485-.24c0-.447-.088-.79-.264-1.03-.176-.24-.422-.358-.739-.358a.852.852 0 00-.728.358c-.176.24-.268.569-.275.995v.275c0 .433.088.773.268 1.02.18.247.425.372.739.372.316 0 .559-.118.731-.35.173-.233.26-.57.268-1.006v-.276zM19.95 73.422h-.87v1.525h-.492v-3.769h1.228c.418 0 .739.097.964.29.225.193.337.476.337.845 0 .236-.063.44-.186.612-.123.175-.299.304-.52.39l.868 1.6v.031h-.524l-.805-1.524zm-.87-.408h.75c.243 0 .436-.064.577-.193a.648.648 0 00.215-.512c0-.233-.067-.412-.205-.537-.137-.125-.334-.186-.59-.19h-.747v1.432zM23.303 73.758l.07.498.105-.448.732-2.63h.412l.718 2.63.102.455.077-.508.574-2.577h.492l-.897 3.769h-.447l-.763-2.745-.057-.29-.06.29-.791 2.745h-.443l-.897-3.769h.488l.585 2.58zM29.924 73.204H28.32v1.335h1.864v.407h-2.353v-3.768h2.325v.408H28.32V72.8h1.604v.405zM34.23 74.453c-.126.182-.299.318-.524.411a2.11 2.11 0 01-.785.136c-.302 0-.57-.071-.805-.215a1.434 1.434 0 01-.542-.615 2.168 2.168 0 01-.197-.923v-.33c0-.569.13-1.005.39-1.32.26-.311.627-.469 1.098-.469.387 0 .697.1.932.3.236.201.38.487.433.856h-.489c-.091-.5-.383-.751-.876-.751-.327 0-.577.118-.746.35-.169.236-.253.573-.256 1.017v.307c0 .423.095.759.285 1.01.19.25.446.375.77.375.183 0 .345-.021.482-.06.137-.04.25-.111.341-.208v-.845h-.858v-.408h1.344v1.382h.003zM36.27 71.178h-.488v3.769h.489v-3.769zM39.958 73.959h-1.551l-.349.987h-.503l1.414-3.768h.43l1.418 3.769h-.504l-.355-.988zm-1.404-.405h1.26l-.63-1.76-.63 1.76zM44.862 74.947h-.492l-1.865-2.903v2.903h-.489v-3.769h.49l1.87 2.917v-2.917h.486v3.769zM50.467 73.282h-1.552v1.665h-.489v-3.769h2.294v.408h-1.805v1.288h1.552v.408zM52.532 71.178h-.488v3.769h.489v-3.769zM55.22 73.268c-.418-.121-.724-.272-.914-.45a.87.87 0 01-.285-.663.92.92 0 01.348-.737c.232-.193.538-.29.911-.29.253 0 .482.05.683.15.2.1.352.24.464.416.11.175.166.368.166.576H56.1c0-.23-.07-.408-.215-.54-.144-.13-.344-.197-.601-.197-.24 0-.43.053-.563.16a.546.546 0 00-.2.451c0 .154.063.283.193.39.126.108.345.204.654.29.31.09.549.186.721.29.173.108.303.23.387.373.085.139.127.307.127.497a.882.882 0 01-.352.734c-.235.182-.549.275-.94.275a1.69 1.69 0 01-.71-.15 1.21 1.21 0 01-.51-.408 1.004 1.004 0 01-.18-.587h.49c0 .229.084.408.25.54.165.133.386.197.66.197.258 0 .455-.054.592-.16a.528.528 0 00.208-.438.516.516 0 00-.19-.429c-.138-.093-.366-.193-.7-.29zM60.769 74.947h-.49v-1.743h-1.868v1.743h-.489v-3.769h.49V72.8h1.868v-1.62h.489v3.767zM67.183 73.182c0 .369-.06.69-.183.966a1.41 1.41 0 01-.517.63 1.43 1.43 0 01-.785.219c-.292 0-.549-.072-.778-.219a1.44 1.44 0 01-.524-.622 2.294 2.294 0 01-.193-.938v-.272c0-.361.063-.683.186-.959.123-.28.3-.49.524-.637.229-.147.486-.222.778-.222.295 0 .56.072.784.219.23.146.401.357.525.633.123.275.183.597.183.966v.236zm-.486-.24c0-.447-.088-.79-.264-1.03-.176-.24-.422-.358-.742-.358a.852.852 0 00-.728.358c-.176.24-.268.569-.275.995v.275c0 .433.088.773.267 1.02.18.247.426.372.74.372.316 0 .559-.118.731-.35.173-.233.26-.57.268-1.006v-.276h.003zM69.142 71.178h-.49v3.769h.49v-3.769zM71.228 74.538h1.756v.409h-2.245v-3.769h.49v3.36zM58.69 30.604c-.416-.129-.718-.282-.905-.465a.866.866 0 01-.274-.662.904.904 0 01.358-.727c.236-.19.539-.279.912-.275.253.003.478.057.675.161.197.104.348.243.454.419.106.179.158.368.155.576l-.49-.007c.004-.23-.063-.408-.203-.54-.141-.133-.338-.201-.598-.205-.24-.003-.43.047-.563.15a.542.542 0 00-.208.444.479.479 0 00.187.39c.126.108.34.208.647.301.306.093.545.193.714.3.173.108.3.233.38.376.081.143.12.308.116.498a.887.887 0 01-.362.726c-.236.18-.549.265-.94.258a1.68 1.68 0 01-.707-.161 1.224 1.224 0 01-.503-.415 1.003 1.003 0 01-.169-.587l.49.007a.652.652 0 00.239.54c.162.133.38.204.658.208.256.004.453-.047.59-.15a.515.515 0 00.212-.433.52.52 0 00-.183-.43c-.123-.09-.352-.193-.683-.297zM61.85 28.782l-.594 3.702.48.08.593-3.702-.48-.08zM65.835 33.757l-.465-.161-.834-3.346-.921 2.734-.461-.161 1.196-3.547.46.158.835 3.364.929-2.749.457.161-1.196 3.547zM69.994 34.791c-.243.315-.525.498-.841.555-.317.053-.648-.025-.992-.236-.373-.233-.588-.551-.648-.963-.06-.412.046-.841.317-1.295l.186-.308c.18-.297.387-.526.63-.687.24-.161.493-.244.757-.244.263 0 .524.075.774.233.334.207.545.469.633.784.088.314.046.65-.123 1.005l-.415-.258c.116-.279.15-.511.098-.7-.053-.19-.186-.352-.4-.488a.862.862 0 00-.803-.089c-.271.107-.517.343-.739.712l-.186.311c-.212.348-.303.67-.285.963a.833.833 0 00.411.68c.232.143.44.2.627.172.186-.029.38-.165.58-.401l.419.254zM72.998 36.738l-1.175-1.102-.887.977 1.365 1.28-.27.298-1.72-1.618 2.504-2.755 1.7 1.603-.268.297-1.344-1.267-.81.888 1.176 1.102-.271.297zM74.638 41.859l-.243-.412 2.684-1.624-.78-.648.365-.218 1.12.908.038.065-3.184 1.929zM77.657 44.725a1.152 1.152 0 01-.384-.236.981.981 0 01-.253-.39.997.997 0 01.246-1.091c.148-.15.33-.262.545-.344.233-.086.458-.118.676-.1.218.021.404.096.563.222.158.129.274.3.355.522.127.347.095.67-.088.966-.183.297-.5.526-.94.691l-.13.047c-.675.25-1.213.297-1.621.143-.408-.158-.715-.505-.919-1.049l-.031-.086.373-.14.035.094c.137.368.334.615.591.748.253.132.58.132.982.003zm-.247-.687c.053.15.148.272.285.365a.869.869 0 00.437.154l.175-.064c.289-.108.5-.258.637-.455.134-.197.166-.39.099-.583a.593.593 0 00-.394-.39c-.19-.065-.408-.05-.651.04-.236.089-.412.218-.52.39a.566.566 0 00-.068.543zM79.655 48.701a.85.85 0 01-.51-.064 1.01 1.01 0 01-.398-.34c-.05.207-.144.38-.281.519a.889.889 0 01-.507.257c-.313.054-.584-.014-.806-.2-.221-.186-.362-.454-.418-.805-.057-.354-.01-.655.14-.902.155-.247.387-.394.7-.447a.935.935 0 01.56.075c.176.082.32.215.433.394a.967.967 0 01.27-.444.85.85 0 01.462-.222c.306-.05.566.007.777.179.211.168.345.419.398.744.052.326.007.605-.141.834-.148.229-.373.372-.68.422zm-1.763-.1a.672.672 0 00.465-.28.724.724 0 00.109-.547c-.035-.21-.127-.372-.271-.476-.148-.107-.324-.143-.531-.107-.208.036-.36.125-.458.268-.098.144-.13.33-.095.551.035.219.123.383.264.49.14.101.313.137.517.101zm2.203-1.095a.59.59 0 00-.243-.419c-.13-.096-.292-.125-.486-.096a.629.629 0 00-.422.243.616.616 0 00-.098.48c.031.19.112.329.242.422.134.093.292.125.475.093a.63.63 0 00.426-.25.58.58 0 00.106-.473zM80.429 52.874l-3.392-1.625.01-.498 3.27 1.618.041-2.033.384.011-.05 2.534-.263-.007z" fill="#202945"/><path d="M6.605 0H.349v6.363h6.256V0zM23.292 0H10.777v6.363h12.515V0zM6.605 10.607H.349v6.363h6.256v-6.363zM23.292 10.607H10.777v6.363h12.515v-6.363z" fill="#CF3B2C"/><path d="M23.288 7.426H9.732V0H7.646v7.426H.349v2.118h7.297v7.426h2.086V9.544h13.556V7.426z" fill="#202945"/><path d="M10.777 0v6.363h12.511v1.063H9.732V0h1.045zM23.288 10.607h-12.51v6.363H9.731V9.544h13.556v1.063zM6.573 0v6.363H.349v1.063h7.269V0H6.573zM.35 10.607h6.223v6.363h1.045V9.544H.349v1.063z" fill="#fff"/></svg>