<svg width="65" height="64" fill="none" xmlns="http://www.w3.org/2000/svg"><path d="M39.165 53.688h1.904v1.874h-1.904v-1.874z" fill="#202945"/><path d="M42.237 16.245l-6.255-1.429v-1.493c1.529-1.074 2.529-2.834 2.529-4.82V5.919C38.511 2.655 35.814 0 32.5 0s-6.011 2.655-6.011 5.919v2.584c0 1.986 1 3.746 2.53 4.82v1.493l-6.256 1.43c-1.629.371-2.64 1.44-2.64 2.787v3.334h1.903v-3.334c0-.627.817-.881 1.168-.961l6.021-1.376A3.484 3.484 0 0032.5 18.99c1.516 0 2.808-.959 3.285-2.293l6.021 1.376c.351.08 1.168.334 1.168.961V38.91a.946.946 0 01-.952.937.946.946 0 01-.953-.938V22.367h-1.904v10.84h-13.33v-10.84h-1.904V38.91a.946.946 0 01-.953.937.946.946 0 01-.952-.938V24.242h-1.904V38.91c0 1.55 1.281 2.812 2.857 2.812.333 0 .654-.057.952-.16V60.25c0 2.068 1.708 3.75 3.808 3.75 2.1 0 3.809-1.682 3.809-3.75V43.47l.952-.938.952.938v16.78c0 2.068 1.709 3.75 3.809 3.75s3.808-1.682 3.808-3.75v-2.813h-1.904v2.813c0 1.034-.854 1.875-1.904 1.875-1.05 0-1.905-.841-1.905-1.875V46.831h3.809v4.981h1.904v-10.25c.298.103.619.16.953.16 1.575 0 2.856-1.262 2.856-2.813V19.033c0-1.348-1.012-2.416-2.641-2.788zM32.5 1.875c1.937 0 3.563 1.327 3.994 3.106h-7.988c.43-1.779 2.057-3.106 3.994-3.106zm-4.107 4.981h8.214v1.647c0 2.23-1.843 4.043-4.107 4.043-2.265 0-4.107-1.813-4.107-4.043V6.856zM32.5 17.114c-.87 0-1.577-.697-1.577-1.553v-1.348a6.08 6.08 0 003.154 0v1.348c0 .857-.707 1.553-1.577 1.553zm-4.76 45.011c-1.05 0-1.905-.841-1.905-1.875V46.831h3.809V60.25c0 1.034-.855 1.875-1.905 1.875zm7.616-17.169v-2.263L32.5 39.881l-2.856 2.812v2.263h-3.809v-9.875h13.33v9.875h-3.809zM59.523 14.22l3.438-3.386-13.608-3.152 3.624 12.982 2.411-2.374a25.948 25.948 0 013.9 13.71c0 8.902-4.515 17.144-12.077 22.045l-.429.278v6.471l1.413-.768C58.56 54.386 65 43.648 65 32a31.434 31.434 0 00-5.477-17.78zM48.687 57.566v-2.239c7.84-5.28 12.505-13.962 12.505-23.328a27.809 27.809 0 00-4.85-15.72l-.645-.946-1.751 1.725-1.907-6.829 7.158 1.659-2.149 2.115.463.645A29.606 29.606 0 0163.096 32c0 10.426-5.481 20.079-14.41 25.567zM9.612 45.71A25.949 25.949 0 015.712 32c0-4.94 1.396-9.754 4.034-13.924A26.734 26.734 0 0120.26 8.535l.516-.262V2.114l-1.335.578C7.631 7.8 0 19.304 0 32a31.434 31.434 0 005.478 17.78L2.04 53.167l13.607 3.152-3.624-12.982-2.411 2.374zm-3.809 6.402l2.149-2.115-.463-.646A29.607 29.607 0 011.904 32c0-11.467 6.612-21.901 16.968-26.976v2.112A28.62 28.62 0 008.13 17.084 27.857 27.857 0 003.809 32a27.81 27.81 0 004.848 15.72l.646.946 1.751-1.725 1.907 6.828-7.158-1.657z" fill="#202945"/><path d="M35.356 26.117h1.905v1.875h-1.905v-1.875zM35.356 22.367h1.905v1.875h-1.905v-1.875z" fill="#202945"/></svg>