<svg width="41" height="42" fill="none" xmlns="http://www.w3.org/2000/svg"><path d="M35.824 22.02c0 8.533-6.777 15.475-15.106 15.475a14.76 14.76 0 01-8.74-2.851 15.443 15.443 0 01-4.56-5.276l3.016-.633-6.866-6.18L0 30.928l3.397-.714a19.459 19.459 0 006.283 7.743 18.64 18.64 0 0011.038 3.602c5.094 0 9.884-2.032 13.486-5.722.44-.45.861-.925 1.254-1.413l-.918-.776c-.369.458-.765.904-1.177 1.327-3.378 3.46-7.869 5.365-12.645 5.365a17.477 17.477 0 01-10.348-3.376 18.254 18.254 0 01-6.078-7.687l-.191-.455-2.092.44 1.997-4.688 3.845 3.46-2.18.458.326.702a16.658 16.658 0 005.292 6.445 15.925 15.925 0 009.429 3.076c8.786 0 15.971-7.16 16.285-16.084h1.588c-.115 3.657-1.267 7.131-3.348 10.084l.965.714c2.344-3.326 3.583-7.27 3.583-11.408v-.61h-3.967v.61z" fill="#AAB6AF"/><path d="M17.486 33.065c1.665 0 3.049-1.247 3.311-2.877 4.491-.473 8.005-4.371 8.005-9.095 0-.583-.054-1.164-.161-1.733a3.463 3.463 0 001.342-2.748c0-1.896-1.506-3.438-3.357-3.438-.59 0-1.144.157-1.626.432a8.689 8.689 0 00-5.123-1.656c-2.059 0-4.04.724-5.629 2.047a4.123 4.123 0 00-1.925-.476c-2.317 0-4.202 1.931-4.202 4.305 0 1.896 1.202 3.508 2.866 4.081a9.262 9.262 0 003.404 6.396 3.5 3.5 0 00-.26 1.324c0 1.896 1.505 3.438 3.355 3.438zm9.14-18.672c1.195 0 2.166.995 2.166 2.22 0 1.223-.971 2.218-2.166 2.218-1.194 0-2.166-.995-2.166-2.219 0-1.223.972-2.219 2.166-2.219zm-14.418 7.735l.115.003c2.318 0 4.203-1.931 4.203-4.305 0-.068-.001-.136-.004-.203l-1.19.056c.003.049.004.098.004.147 0 1.702-1.351 3.086-3.013 3.086-1.66 0-3.012-1.384-3.012-3.086s1.351-3.086 3.012-3.086c1.221 0 2.313.746 2.783 1.9l1.098-.47a4.318 4.318 0 00-.949-1.432 7.599 7.599 0 014.622-1.57c1.499 0 2.926.43 4.168 1.25a3.473 3.473 0 00-.775 2.194c0 1.896 1.506 3.438 3.356 3.438.313 0 .615-.045.902-.127.056.386.084.777.084 1.17 0 4.37-3.47 7.925-7.735 7.925-.68 0-1.354-.09-2.004-.269l-.308 1.178a8.73 8.73 0 002.005.304c-.257.93-1.094 1.615-2.084 1.615-1.194 0-2.166-.995-2.166-2.219 0-.211.03-.42.087-.62.306.182.624.348.954.493l.47-1.12c-2.511-1.103-4.268-3.51-4.623-6.252z" fill="#AAB6AF"/><path d="M20.676 26.178c1.422 0 2.578-1.184 2.578-2.641s-1.157-2.642-2.578-2.642c-1.422 0-2.579 1.185-2.579 2.642 0 1.457 1.157 2.641 2.579 2.641zm0-4.063c.765 0 1.388.638 1.388 1.422 0 .784-.623 1.422-1.388 1.422-.766 0-1.389-.638-1.389-1.422 0-.784.623-1.422 1.389-1.422zM30.476 30.508c1.225 0 2.222-1.02 2.222-2.275s-.997-2.276-2.222-2.276c-1.224 0-2.221 1.02-2.221 2.276 0 1.254.996 2.275 2.221 2.275zm0-3.332c.57 0 1.032.474 1.032 1.057 0 .582-.463 1.056-1.032 1.056a1.045 1.045 0 01-1.031-1.056c0-.583.463-1.057 1.031-1.057zM17.673 9.509c0-1.255-.997-2.276-2.221-2.276-1.225 0-2.222 1.021-2.222 2.276s.997 2.276 2.221 2.276c1.225 0 2.222-1.021 2.222-2.276zm-3.253 0c0-.583.463-1.057 1.031-1.057.57 0 1.032.474 1.032 1.057 0 .582-.463 1.056-1.032 1.056a1.045 1.045 0 01-1.03-1.056z" fill="#AAB6AF"/><path d="M5.17 19.98c0-8.533 6.776-15.475 15.106-15.475 3.155 0 6.177.986 8.74 2.851a15.444 15.444 0 014.56 5.276l-3.029.636 6.879 6.086L41 11.072l-3.404.715a19.459 19.459 0 00-6.283-7.743A18.641 18.641 0 0020.276.442c-5.095 0-9.885 2.032-13.487 5.722-3.602 3.69-5.586 8.597-5.586 13.816v.61H5.17v-.61zm-2.768-.61c.148-4.665 1.991-9.028 5.229-12.344 3.377-3.46 7.868-5.365 12.645-5.365 3.735 0 7.313 1.167 10.348 3.376a18.254 18.254 0 016.077 7.686l.192.456 2.085-.438-1.99 4.614-3.833-3.39 2.167-.456-.326-.702a16.66 16.66 0 00-5.291-6.445 15.925 15.925 0 00-9.43-3.076c-8.786 0-15.97 7.16-16.285 16.084H2.402z" fill="#AAB6AF"/></svg>