<svg width="75" height="75" fill="none" xmlns="http://www.w3.org/2000/svg"><path d="M36.246 48l-.034-21.25-10.338 17.983h-.607L14.895 26.817V48h-1.111V24.426h.943l10.844 18.86 10.81-18.86h.943L37.358 48h-1.112zM60.8 30.522v15.794c0 2.829-.685 4.917-2.055 6.264-1.37 1.37-3.435 2.054-6.196 2.054-1.617 0-3.121-.247-4.513-.74-1.392-.494-2.503-1.19-3.334-2.088l.64-.842a9.157 9.157 0 003.166 1.953c1.234.471 2.57.707 4.007.707 2.447 0 4.255-.584 5.422-1.751 1.167-1.145 1.751-2.953 1.751-5.422v-3.705a7.596 7.596 0 01-2.997 3.402c-1.347.83-2.885 1.246-4.614 1.246-1.639 0-3.12-.36-4.445-1.078a8.36 8.36 0 01-3.098-3.03c-.741-1.303-1.112-2.773-1.112-4.413 0-1.638.37-3.098 1.112-4.377a8.034 8.034 0 013.098-3.031c1.325-.719 2.806-1.078 4.445-1.078 1.729 0 3.267.415 4.614 1.246a7.507 7.507 0 013.03 3.435v-4.546H60.8zm-8.69 15.861c1.438 0 2.729-.314 3.874-.943a6.993 6.993 0 002.728-2.694c.673-1.145 1.01-2.436 1.01-3.873 0-1.436-.337-2.716-1.01-3.839a6.764 6.764 0 00-2.728-2.66c-1.145-.629-2.436-.943-3.873-.943-1.437 0-2.74.314-3.907.943a6.822 6.822 0 00-2.694 2.66c-.65 1.123-.976 2.403-.976 3.84 0 1.459.325 2.761.976 3.906a7.13 7.13 0 002.694 2.66c1.168.63 2.47.944 3.907.944z" fill="#B6B6B6"/><circle cx="37.5" cy="37.5" r="37.113" stroke="#C4C4C4" stroke-width=".773"/></svg>