<svg width="35" height="35" fill="none" xmlns="http://www.w3.org/2000/svg"><path d="M34.732 8.238L27.42.325a1.01 1.01 0 00-1.485 0l-7.311 7.913a1.01 1.01 0 00.742 1.697h1.998v7.443h-9.31a2.941 2.941 0 00-.717-3.022 2.945 2.945 0 00.869-2.09A2.958 2.958 0 009.252 9.31H3.605A2.957 2.957 0 00.65 12.266c0 .815.332 1.555.868 2.09a2.945 2.945 0 00-.635 3.241c-.234.185-.384.47-.384.792v14.844c0 .558.453 1.01 1.01 1.01H26.34c.073.017.148.027.226.027h.002l4.138-.01a1.01 1.01 0 001.008-1.011V9.935h2.276a1.01 1.01 0 00.743-1.697zM2.522 27.774v-4.15A5.345 5.345 0 006.744 19.4h14.431a5.344 5.344 0 004.378 4.25v4.096a5.343 5.343 0 00-4.417 4.476H6.784a5.344 5.344 0 00-4.263-4.448zM3.604 19.4h1.057a3.324 3.324 0 01-2.14 2.14V19.4h1.083zM25.554 29.81v2.411h-2.359a3.321 3.321 0 012.359-2.41zm0-8.225a3.323 3.323 0 01-2.295-2.186h2.295v2.186zm-21.95-4.208a.934.934 0 010-1.865h5.648a.934.934 0 010 1.865H3.605zm0-6.045h5.648a.934.934 0 010 1.865H3.605a.934.934 0 010-1.865zM2.522 29.857a3.322 3.322 0 012.205 2.365H2.52v-2.365zM30.702 7.914a1.01 1.01 0 00-1.01 1.01V32.24l-2.117.006V18.389a1.01 1.01 0 00-1.01-1.01h-3.178V8.923a1.01 1.01 0 00-1.01-1.01h-.7L26.678 2.5l5.002 5.414h-.977z" fill="#202945"/><path d="M14.406 20.389a5.338 5.338 0 00-5.331 5.331 5.337 5.337 0 005.331 5.332 5.337 5.337 0 005.332-5.332 5.338 5.338 0 00-5.332-5.331zm0 8.641a3.314 3.314 0 01-3.31-3.31 3.314 3.314 0 013.31-3.31 3.314 3.314 0 013.31 3.31 3.314 3.314 0 01-3.31 3.31z" fill="#202945"/></svg>