<svg width="55" height="64" fill="none" xmlns="http://www.w3.org/2000/svg"><g clip-path="url(#clip0)" fill="#202945"><path d="M33.688 29.375c0 .892-.646 1.696-.646 1.698a1.25 1.25 0 001.916 1.605c.126-.15 1.23-1.52 1.23-3.303s-1.104-3.152-1.23-3.302c-.006-.008-.645-.812-.645-1.698 0-.88.628-1.676.65-1.704a1.25 1.25 0 00-1.921-1.598c-.126.15-1.23 1.519-1.23 3.302 0 1.783 1.104 3.152 1.23 3.302.006.008.645.812.645 1.698zM27.438 16.875c0 .892-.645 1.696-.646 1.698a1.25 1.25 0 001.916 1.604c.126-.15 1.23-1.519 1.23-3.302 0-1.783-1.104-3.152-1.23-3.303-.006-.007-.645-.81-.645-1.697 0-.88.628-1.676.65-1.704a1.25 1.25 0 00-1.921-1.598c-.126.15-1.23 1.519-1.23 3.302 0 1.783 1.104 3.152 1.23 3.303.006.007.645.81.645 1.697zM8.688 29.375c0 .892-.646 1.696-.646 1.698a1.25 1.25 0 001.916 1.605c.126-.15 1.23-1.52 1.23-3.303s-1.104-3.152-1.23-3.302c-.006-.008-.646-.812-.646-1.698 0-.88.63-1.676.652-1.704a1.25 1.25 0 00-1.922-1.598c-.126.15-1.23 1.519-1.23 3.302 0 1.783 1.104 3.152 1.23 3.302.006.008.646.812.646 1.698zM14.938 16.875c0 .892-.646 1.696-.646 1.698a1.25 1.25 0 001.916 1.604c.126-.15 1.23-1.519 1.23-3.302 0-1.783-1.104-3.152-1.23-3.303-.006-.007-.645-.81-.645-1.697 0-.88.628-1.676.65-1.704a1.25 1.25 0 00-1.921-1.598c-.126.15-1.23 1.519-1.23 3.302 0 1.783 1.104 3.152 1.23 3.303.006.007.646.81.646 1.697zM21.188 29.375c0 .892-.645 1.696-.646 1.698a1.25 1.25 0 001.916 1.605c.126-.15 1.23-1.52 1.23-3.303s-1.104-3.152-1.23-3.302c-.006-.008-.645-.812-.645-1.698 0-.88.628-1.676.65-1.704a1.25 1.25 0 00-1.921-1.598c-.126.15-1.23 1.519-1.23 3.302 0 1.783 1.104 3.152 1.23 3.302.006.008.645.812.645 1.698zM15.25 50.25A3.755 3.755 0 0019 54a3.755 3.755 0 003.75-3.75A3.754 3.754 0 0019 46.5a3.754 3.754 0 00-3.75 3.75zm5 0c0 .69-.561 1.25-1.25 1.25s-1.25-.56-1.25-1.25S18.311 49 19 49s1.25.56 1.25 1.25z"/><path d="M52.314 57.093a1.25 1.25 0 00-1.064-.593h-9.946a29.347 29.347 0 001.916-1.657 10.015 10.015 0 001.681-2.04c.563-.933.84-1.816.849-2.677a5.818 5.818 0 00-.51-2.422 6.15 6.15 0 00-1.514-2.062 4.948 4.948 0 00-1.826-1.067 5.756 5.756 0 00-1.775-.254c-.488 0-1.419.088-1.461.092a1.242 1.242 0 00-.847.446 1.242 1.242 0 00-.282.913c.029.313.172.6.405.81.259.237.606.352.955.32 0 0 .87-.08 1.227-.08.403 0 .728.042 1.018.136.339.11.616.273.902.532.823.766 1.197 1.585 1.208 2.634.002.361-.179.882-.485 1.38a7.57 7.57 0 01-1.261 1.521c-1.313 1.241-2.847 2.418-4.515 3.475H10.706a10.51 10.51 0 01-.659-1.387c-.737-1.898-.812-3.687-.81-4.368 0-.111.013-.495.013-.495.001-2.989 1.239-5.805 3.485-7.93 2.267-2.141 5.286-3.32 8.5-3.32 2.86.009 5.116.81 7.315 2.598a1.245 1.245 0 001.759-.174c.212-.259.31-.584.277-.916a1.237 1.237 0 00-.451-.843 13.787 13.787 0 00-3.743-2.229c-1.582-.62-3.302-.936-5.113-.936h-.044c-1.946 0-3.835.36-5.615 1.071a14.5 14.5 0 00-4.601 2.93 13.655 13.655 0 00-3.112 4.354 13.065 13.065 0 00-1.157 5.353c-.005.086-.014.27-.014.537.005 1.046.119 2.095.339 3.119.199.925.48 1.806.842 2.636H1.25A1.25 1.25 0 00.132 58.31l2.5 5c.212.424.644.691 1.118.691h45c.474 0 .906-.267 1.117-.691l2.5-5a1.25 1.25 0 00-.053-1.216zM47.977 61.5H4.522L3.272 59h45.955l-1.25 2.5z"/><path d="M33.422 45.743a1.25 1.25 0 100-2.5 1.25 1.25 0 000 2.5z"/></g><defs><clipPath id="clip0"><path fill="#fff" d="M0 0h55v64H0z"/></clipPath></defs></svg>