<svg width="75" height="75" fill="none" xmlns="http://www.w3.org/2000/svg"><path d="M19.243 47.101c-1.415 0-2.75-.213-4.008-.64-1.234-.426-2.2-.988-2.896-1.684l.539-.875c.719.628 1.639 1.156 2.761 1.582 1.146.427 2.358.64 3.638.64 1.886 0 3.277-.314 4.176-.943.898-.65 1.347-1.549 1.347-2.694 0-.808-.247-1.448-.741-1.92-.472-.47-1.067-.819-1.785-1.043-.719-.225-1.684-.45-2.896-.674-1.415-.27-2.549-.539-3.402-.808a5.2 5.2 0 01-2.121-1.38c-.584-.63-.876-1.505-.876-2.628 0-1.324.539-2.424 1.617-3.3 1.1-.898 2.694-1.347 4.782-1.347 1.077 0 2.155.168 3.233.505 1.077.314 1.953.741 2.627 1.28l-.573.875c-.696-.538-1.515-.942-2.458-1.212a9.414 9.414 0 00-2.863-.438c-1.729 0-3.03.337-3.907 1.01-.875.652-1.313 1.516-1.313 2.594 0 .853.247 1.526.741 2.02s1.1.865 1.818 1.112c.741.224 1.74.46 2.998.707 1.347.247 2.436.516 3.266.808.831.27 1.527.707 2.088 1.313.584.607.876 1.449.876 2.526 0 1.415-.573 2.537-1.718 3.368-1.145.83-2.795 1.246-4.95 1.246zm18.21 0c-1.617 0-3.087-.37-4.412-1.111a8.149 8.149 0 01-3.064-3.166c-.741-1.347-1.112-2.874-1.112-4.58s.37-3.233 1.112-4.58c.74-1.347 1.762-2.391 3.064-3.132 1.325-.763 2.796-1.145 4.412-1.145 1.639 0 3.11.382 4.412 1.145 1.302.74 2.323 1.785 3.064 3.132.741 1.347 1.112 2.874 1.112 4.58s-.37 3.233-1.112 4.58a8.148 8.148 0 01-3.064 3.166c-1.303.74-2.773 1.111-4.412 1.111zm0-1.01c1.414 0 2.683-.326 3.805-.977a7.17 7.17 0 002.695-2.795c.65-1.19.976-2.548.976-4.075 0-1.527-.325-2.874-.976-4.041-.651-1.19-1.55-2.11-2.695-2.762-1.122-.673-2.39-1.01-3.805-1.01-1.414 0-2.694.337-3.84 1.01-1.122.651-2.009 1.572-2.66 2.762-.65 1.167-.976 2.514-.976 4.041 0 1.527.325 2.885.976 4.075.651 1.19 1.538 2.121 2.66 2.795 1.146.651 2.426.977 3.84.977zM64.55 29.52l-9.16 20.106c-.651 1.46-1.392 2.492-2.223 3.098-.83.606-1.807.91-2.93.91a5.838 5.838 0 01-2.189-.405 4.286 4.286 0 01-1.717-1.145l.64-.875c.47.516.965.886 1.481 1.111.517.224 1.112.337 1.785.337.876 0 1.628-.247 2.256-.741.652-.494 1.258-1.347 1.819-2.56l1.111-2.39-7.947-17.445h1.212l7.341 16.198 7.342-16.198h1.179z" fill="#B6B6B6"/><circle cx="37.5" cy="37.5" r="37.113" stroke="#C4C4C4" stroke-width=".773"/></svg>