<svg width="42" height="42" fill="none" xmlns="http://www.w3.org/2000/svg"><path d="M39.938 8.194c-1.336-2.23-6.574-2.743-10.399-3.118-1.265-.124-2.7-.265-2.995-.413-.713-.356-.948-1.97-.95-2.695a.657.657 0 00-.657-.655h-7.875a.656.656 0 00-.656.656c0 .724-.232 2.335-.95 2.694-.296.148-1.73.289-2.995.413-3.825.375-9.063.888-10.399 3.118-2.004 3.34-.334 16.323-.096 18.085l-.653 13.72a.658.658 0 00.656.688h4.593a.656.656 0 00.65-.567c.171-1.253 1.464-10.758 1.86-14.468.322 1.565.615 2.86.805 3.43.511 1.532.623 8.424.623 10.95 0 .362.294.656.656.656h19.688a.656.656 0 00.656-.657c0-2.525.112-9.416.623-10.948.19-.572.483-1.866.805-3.431.396 3.71 1.688 13.215 1.86 14.468a.656.656 0 00.65.568h4.593a.657.657 0 00.656-.688l-.654-13.721c.239-1.762 1.909-14.745-.095-18.085zm-.595 31.181H36.01c-.59-4.355-1.885-14.1-1.885-15.094 0-.678-.16-2.397-.263-3.426.483-2.578.874-4.789.91-4.99l-1.293-.23c-.01.055-.479 2.707-1.03 5.628l-3.246 4.33H23.78l-1.174-.586-.587 1.174 1.312.656c.091.046.192.07.294.07h5.906a.657.657 0 00.525-.264l1.824-2.433c-.402 2.028-.782 3.796-1.003 4.457-.588 1.767-.675 8.457-.688 10.708H11.81c-.012-2.25-.099-8.941-.688-10.708-.22-.661-.6-2.43-1.002-4.457l1.824 2.433a.657.657 0 00.525.263h5.906a.657.657 0 00.294-.069l1.312-.656-.587-1.174-1.174.587h-5.423l-3.246-4.33a558.664 558.664 0 01-1.03-5.628l-1.292.228c.035.202.426 2.413.909 4.99-.103 1.03-.263 2.75-.263 3.427 0 .994-1.295 10.74-1.886 15.094H2.657l.624-13.094a.65.65 0 00-.006-.12C2.736 22.21 1.67 11.399 3.188 8.869c.996-1.663 6.257-2.178 9.4-2.486 1.933-.19 2.965-.3 3.456-.545 1.205-.603 1.544-2.265 1.639-3.212h6.634c.095.947.434 2.609 1.64 3.212.49.245 1.521.356 3.454.545 3.143.308 8.405.823 9.401 2.487 1.518 2.529.451 13.34-.087 17.293a.647.647 0 00-.006.12l.624 13.093z" fill="#3F594A"/><path d="M13.125 22.969h1.313v1.312h-1.313V22.97zM27.563 22.969h1.312v1.312h-1.313V22.97zM16.562 28.45a.656.656 0 00-.147.533l.656 3.937a.656.656 0 00.648.549h1.312v3.937a.656.656 0 001.12.464l5.907-5.906a.656.656 0 00-.464-1.12H24.03l.837-1.675a.657.657 0 00-.587-.95h-7.218a.656.656 0 00-.501.232zm6.657 1.081l-.837 1.675a.656.656 0 00.587.95h1.04l-3.665 3.666v-3.01a.656.656 0 00-.657-.656h-1.412l-.438-2.625h5.382z" fill="#3F594A"/></svg>