<svg width="41" height="42" fill="none" xmlns="http://www.w3.org/2000/svg"><path d="M13.125 25.286c5.24-.468 5.178-7.707.98-9.626-3.122-1.597-4.124-3.598-4.124-8.234V4.964H8.779v2.462c0 2.571.303 4.34.983 5.737.73 1.5 1.94 2.642 3.806 3.599 2.848 1.458 3.58 6.738-.503 7.295-6.075.31-10.869 5.438-10.913 11.673l1.202.01c.04-5.585 4.331-10.176 9.771-10.454zM2.152 36.966h1.201v1.23H2.152v-1.23z" fill="#D7DDD9"/><path d="M38.848 8.804C38.9 4.041 35.043.038 30.393.033c-4.124-.005-7.57 3.027-8.322 7.03-2.824.61-4.916 2.635-5.738 5.544-1.3-.621-2.166-1.974-2.166-3.48V0H8.78v3.733h1.202V1.231h2.985v7.896c-.02 2.538 1.853 4.61 4.246 5.06.399-2.824 2.134-5.14 4.713-5.823a8.819 8.819 0 001.926 5.857l.927-.784a7.563 7.563 0 01-1.659-4.732c0-4.103 3.259-7.441 7.264-7.441 4.007 0 7.264 3.336 7.264 7.44 0 4.103-3.259 7.441-7.264 7.441-1.74 0-3.422-.64-4.738-1.8l-.784.932a8.344 8.344 0 005.539 2.099c-.108 7.662-2.698 18.913-11.692 18.974-2.802.017-5.144-1.603-6.367-3.923-.733-1.35-.945-2.918-.888-4.447-2.896 1.09-4.9 3.054-5.45 6.237-.133.678-.203 1.41-.211 2.178v4.374H3.353v-1.342H2.152V42h4.842s-.01-4.577 0-5.592c.006-.692.07-1.348.187-1.95.416-2.142 1.392-3.584 3.122-4.576.849 8.018 10.823 10.11 15.857 4.53 3.842-3.9 5.41-11.206 5.442-17.126 4.061-.603 7.198-4.169 7.246-8.482z" fill="#D7DDD9"/><path d="M26.17 10.512h2.408v2.466h3.61v-2.466h2.407V6.815h-2.407V4.349h-3.61v2.466h-2.407v3.697zm1.202-2.466h2.408V5.579h1.206v2.467h2.408v1.236h-2.408v2.466H29.78V9.282h-2.408V8.045z" fill="#D7DDD9"/><path d="M26.18 4.349h1.202v1.23H26.18V4.35zM18.433 18.503h1.201v1.231h-1.201v-1.23zM18.433 20.965h1.201v1.23h-1.201v-1.23z" fill="#D7DDD9"/></svg>