<svg width="40" height="40" fill="none" xmlns="http://www.w3.org/2000/svg"><path d="M15.834 13.333a.83.83 0 01-.374-.088l-2.982-1.49a7.458 7.458 0 01-4.144-6.708V.833a.834.834 0 011.666 0v4.214a5.798 5.798 0 003.225 5.216l2.982 1.492a.835.835 0 01.373 1.118.838.838 0 01-.746.46z" fill="#202945"/><path d="M.833 40A.834.834 0 010 39.167v-.26c0-4.279 1.835-8.224 5.033-10.822 8.357-6.79 6.665-17.005 6.647-17.107a.83.83 0 01.675-.965.828.828 0 01.965.675c.082.457 1.873 11.289-7.237 18.69-2.806 2.282-4.416 5.754-4.416 9.529v.26c0 .46-.374.833-.834.833zM31.233 16.817a.833.833 0 01-.771-.519 13.704 13.704 0 00-1.289-2.401 14.94 14.94 0 00-6.648-5.495l-3.597-1.499C16.603 6.142 15 3.922 15 1.4V.833a.834.834 0 011.667 0V1.4c0 1.8 1.143 3.383 2.843 3.942l3.662 1.523a16.58 16.58 0 017.39 6.108 15.31 15.31 0 011.445 2.697.835.835 0 01-.774 1.147zM7.5 40a.832.832 0 01-.818-.997l.566-2.833a4.147 4.147 0 012.714-3.122 4.129 4.129 0 014.038.73l.299.25a8.539 8.539 0 003.511 1.78.831.831 0 01.615 1.005.827.827 0 01-1.005.615 10.188 10.188 0 01-4.192-2.121l-.294-.25a2.464 2.464 0 00-2.419-.435 2.496 2.496 0 00-1.632 1.876l-.566 2.834A.832.832 0 017.5 40zM27.5 30a.833.833 0 01-.412-1.558l.28-.16c.872-.495 1.192-1.32.797-2.054a.831.831 0 01.338-1.128.83.83 0 011.129.338c.833 1.542.226 3.349-1.44 4.295l-.28.159A.836.836 0 0127.5 30zM29.167 35a.835.835 0 01-.803-1.058c.231-.825.75-1.495 1.46-1.889.758-.418 1.681-.5 2.6-.23l.311.092a.833.833 0 11-.475 1.598l-.31-.091c-.49-.145-.957-.112-1.32.09-.322.178-.552.483-.663.88a.829.829 0 01-.8.608z" fill="#202945"/><path d="M27.412 40c-.17 0-.342-.025-.515-.083-.822-.28-1.175-1.095-1.487-1.814-.138-.32-.33-.761-.475-.87-.142-.108-.597-.163-.928-.203-.717-.087-1.609-.193-2.11-.913-.485-.695-.319-1.554-.174-2.31.072-.377.164-.845.1-1.05-.055-.175-.388-.495-.633-.729C20.66 31.52 20 30.888 20 30c0-.888.66-1.52 1.192-2.028.243-.234.578-.554.633-.73.063-.205-.027-.674-.1-1.05-.145-.757-.31-1.612.173-2.309.502-.721 1.392-.828 2.109-.913.331-.04.785-.095.928-.203.145-.11.337-.55.477-.872.311-.718.665-1.533 1.486-1.812.81-.273 1.584.18 2.205.547.299.177.709.417.897.417.188 0 .598-.242.898-.417.622-.367 1.394-.82 2.205-.547.822.28 1.175 1.095 1.487 1.814.138.32.33.761.475.87.142.108.597.163.928.203.717.087 1.609.193 2.11.913.485.695.319 1.554.174 2.31-.072.377-.164.845-.1 1.05.055.175.388.495.633.729.53.508 1.19 1.14 1.19 2.028 0 .888-.66 1.52-1.192 2.028-.243.234-.578.554-.633.73-.063.205.027.674.1 1.05.145.757.31 1.612-.173 2.309-.502.721-1.392.828-2.109.913-.331.04-.785.095-.928.203-.145.11-.337.55-.477.872-.311.718-.665 1.533-1.486 1.812-.814.275-1.585-.18-2.205-.547-.299-.177-.709-.417-.897-.417-.188 0-.598.242-.898.417-.489.287-1.07.63-1.69.63zm.01-18.333h-.007c-.117.071-.35.606-.475.893-.247.57-.503 1.16-.993 1.533-.504.384-1.16.462-1.74.532-.294.035-.842.102-.939.21-.078.138.035.727.095 1.042.114.588.242 1.255.055 1.86-.183.588-.635 1.02-1.073 1.438-.255.243-.678.65-.678.825 0 .175.423.582.678.823.437.419.89.852 1.073 1.439.187.603.059 1.27-.055 1.858-.061.315-.173.902-.095 1.043.097.107.645.174.939.209.58.07 1.235.148 1.738.53.49.375.747.963.995 1.533.125.287.357.823.5.902.125 0 .557-.255.815-.407.517-.305 1.1-.648 1.743-.648.644 0 1.229.345 1.744.648.258.152.706.42.841.4.117-.072.35-.607.475-.893.247-.57.504-1.16.994-1.534.503-.383 1.16-.461 1.74-.531.293-.035.841-.102.938-.21.078-.139-.035-.727-.095-1.042-.113-.588-.242-1.255-.055-1.86.183-.588.635-1.02 1.073-1.438.257-.24.68-.647.68-.822 0-.175-.423-.582-.678-.823-.437-.419-.89-.852-1.073-1.439-.187-.603-.059-1.27.055-1.858.061-.315.173-.902.095-1.043-.097-.107-.645-.174-.939-.209-.58-.07-1.235-.148-1.738-.53-.49-.375-.747-.963-.995-1.533-.125-.287-.357-.823-.5-.902-.125 0-.557.255-.815.407-.517.305-1.1.648-1.743.648-.644 0-1.229-.345-1.744-.648-.256-.153-.68-.403-.836-.403z" fill="#202945"/></svg>