<svg width="22" height="15" fill="none" xmlns="http://www.w3.org/2000/svg"><path d="M21.773 3.239s-.228-1.465-.873-2.114c-.835-.852-1.783-.852-2.2-.887C15.628.034 11 0 11 0S6.372.034 3.3.238c-.417.034-1.365.068-2.2.887C.417 1.772.228 3.24.228 3.24S0 4.977 0 6.716v1.602c0 1.738.228 3.443.228 3.443s.227 1.465.872 2.114c.835.851 1.935.818 2.428.92C5.272 14.966 11 15 11 15s4.627 0 7.7-.238c.417-.034 1.365-.068 2.2-.887.645-.647.873-2.114.873-2.114S22 10.023 22 8.318V6.716c0-1.739-.227-3.477-.227-3.477zM8.345 11.454V4.057l7.207 3.783-7.207 3.614z" fill="#fff"/></svg>