<svg width="75" height="75" fill="none" xmlns="http://www.w3.org/2000/svg"><path d="M35.375 46.956V48H16.65v-.808L33.455 25.47H16.819v-1.044h18.185v.808L18.2 46.956h17.176zm13.221-16.57c2.178 0 3.896.64 5.153 1.92 1.257 1.258 1.886 3.065 1.886 5.422V48h-1.112V37.796c0-2.066-.527-3.637-1.583-4.715-1.032-1.1-2.514-1.65-4.445-1.65-2.178 0-3.895.651-5.152 1.953-1.258 1.28-1.886 3.009-1.886 5.186V48h-1.112V30.522h1.078v4.277a6.792 6.792 0 012.694-3.233c1.257-.786 2.75-1.18 4.48-1.18z" fill="#B6B6B6"/><circle cx="37.5" cy="37.5" r="37.113" stroke="#C4C4C4" stroke-width=".773"/></svg>